<svg width="99" height="27" viewBox="0 0 99 27" fill="none" xmlns="http://www.w3.org/2000/svg">
<path d="M1.83342 11.561C1.25296 11.951 0.79648 12.5124 0.521904 13.1739C0.247329 13.8355 0.167043 14.5673 0.291236 15.2766C0.41543 15.9859 0.738502 16.6406 1.21945 17.1577C1.7004 17.6748 2.31754 18.031 2.99254 18.181C3.66754 18.3309 4.36997 18.268 5.01068 18.0001C5.65139 17.7323 6.20149 17.2715 6.59115 16.6764C6.98082 16.0813 7.19249 15.3787 7.1993 14.6576C7.20611 13.9366 7.00774 13.2297 6.62939 12.6267C6.12592 11.8243 5.33951 11.2621 4.44131 11.0625C3.54311 10.8629 2.60582 11.0421 1.83342 11.561ZM5.31597 17.1336C4.83662 17.4612 4.27493 17.6326 3.70221 17.626C3.12948 17.6194 2.57153 17.4352 2.09916 17.0968C1.6268 16.7583 1.26132 16.2808 1.04911 15.725C0.836892 15.1691 0.787514 14.5599 0.907237 13.9746C1.02696 13.3894 1.31039 12.8545 1.72155 12.4379C2.13271 12.0212 2.65307 11.7416 3.21658 11.6345C3.7801 11.5274 4.36136 11.5976 4.88661 11.8363C5.41185 12.075 5.8574 12.4713 6.1667 12.975C6.58145 13.6499 6.72271 14.4693 6.55945 15.253C6.39619 16.0367 5.94176 16.7207 5.29607 17.1544L5.31597 17.1336Z" fill="white"/>
<path d="M5.07191 9.35689C4.49267 9.74943 4.03816 10.313 3.76612 10.976C3.49408 11.639 3.41679 12.3716 3.54406 13.0806C3.67133 13.7896 3.99742 14.4431 4.48091 14.9581C4.96439 15.473 5.58346 15.8262 6.25947 15.9728C6.93547 16.1193 7.63791 16.0526 8.27756 15.7811C8.9172 15.5096 9.46518 15.0456 9.85189 14.448C10.2386 13.8504 10.4466 13.1462 10.4494 12.4248C10.4523 11.7034 10.2499 10.9975 9.86787 10.3966C9.3605 9.59838 8.57229 9.04153 7.67438 8.84688C6.77646 8.65223 5.8413 8.8355 5.07191 9.35689ZM8.55446 14.9295C8.0751 15.257 7.51342 15.4284 6.94069 15.4218C6.36797 15.4153 5.81002 15.2311 5.33765 14.8926C4.86529 14.5542 4.49981 14.0767 4.2876 13.5208C4.07538 12.965 4.026 12.3557 4.14573 11.7705C4.26545 11.1853 4.54888 10.6504 4.96004 10.2337C5.3712 9.81708 5.89156 9.53746 6.45507 9.43036C7.01858 9.32325 7.59985 9.39348 8.1251 9.63214C8.65034 9.87081 9.09589 10.2671 9.40519 10.7708C9.81653 11.4441 9.95587 12.2602 9.7927 13.0406C9.62953 13.8209 9.17715 14.502 8.53456 14.9347L8.55446 14.9295Z" fill="white"/>
<path d="M12.9336 17.3937L16.2072 9.94971H16.7047L20.0032 17.3937H19.446L16.3515 10.2928H16.5753L13.4908 17.3937H12.9336ZM14.1326 15.3144L14.3067 14.8569H18.5703L18.7445 15.3144H14.1326Z" fill="white"/>
<path d="M23.187 17.4349C22.7047 17.4443 22.2289 17.3187 21.8089 17.071C21.4094 16.8355 21.0791 16.4903 20.8537 16.0729C20.6139 15.6293 20.4919 15.1268 20.5004 14.6174C20.4919 14.1047 20.6138 13.5988 20.8537 13.1515C21.0786 12.735 21.4091 12.3914 21.8089 12.1586C22.1977 11.942 22.6283 11.8201 23.0686 11.8021C23.5089 11.7841 23.9473 11.8705 24.3511 12.0546C24.6975 12.2236 24.9921 12.49 25.2019 12.824L24.8238 13.1099C24.6538 12.8358 24.4144 12.6163 24.1322 12.4757C23.8414 12.339 23.5257 12.2698 23.2069 12.273C22.8175 12.2673 22.4334 12.3676 22.0924 12.5641C21.7676 12.7579 21.5006 13.0423 21.3213 13.3854C21.138 13.766 21.0425 14.1861 21.0425 14.6122C21.0425 15.0383 21.138 15.4584 21.3213 15.839C21.4993 16.1831 21.7666 16.4678 22.0924 16.6603C22.4334 16.8568 22.8175 16.9571 23.2069 16.9514C23.5253 16.9562 23.8411 16.8888 24.1322 16.7539C24.4143 16.6108 24.6535 16.3896 24.8238 16.1145L25.2019 16.4004C24.9904 16.7316 24.6962 16.9959 24.3511 17.1646C23.9872 17.3443 23.5895 17.4367 23.187 17.4349Z" fill="white"/>
<path d="M28.1605 17.4349C27.8195 17.4396 27.4811 17.3724 27.1655 17.2373C26.8968 17.1249 26.6664 16.9313 26.5038 16.6811C26.3489 16.4344 26.2691 16.1444 26.275 15.8494C26.2633 15.5812 26.3182 15.3144 26.4342 15.0749C26.585 14.8267 26.8032 14.6312 27.061 14.5134C27.4308 14.3524 27.8299 14.2779 28.2302 14.2951H30.1854V14.711H28.2401C27.8314 14.6681 27.4216 14.7807 27.0859 15.0281C26.9774 15.1354 26.8921 15.2656 26.8356 15.4102C26.7792 15.5547 26.7529 15.7101 26.7585 15.8661C26.7642 16.0221 26.8017 16.175 26.8684 16.3147C26.9351 16.4543 27.0297 16.5775 27.1456 16.6759C27.462 16.9076 27.8446 17.0195 28.2302 16.993C28.6302 17.0089 29.0255 16.8984 29.3645 16.6759C29.6819 16.4519 29.9225 16.1277 30.051 15.7506L30.1953 16.1093C30.06 16.5054 29.805 16.8447 29.469 17.0762C29.0758 17.327 28.6209 17.4517 28.1605 17.4349ZM30.0709 17.3933V16.1145V15.9222V13.8429C30.0862 13.6281 30.0587 13.4124 29.9902 13.2093C29.9217 13.0062 29.8136 12.8202 29.6729 12.6628C29.3461 12.3712 28.9226 12.2255 28.4938 12.2574C28.1533 12.2584 27.816 12.3254 27.4988 12.4549C27.2023 12.579 26.9281 12.7548 26.6879 12.9747L26.4342 12.5953C26.7128 12.3375 27.0374 12.1396 27.3894 12.013C27.7669 11.8756 28.1637 11.8053 28.5635 11.8051C29.1061 11.774 29.6398 11.9599 30.056 12.3249C30.244 12.5317 30.3885 12.7772 30.4802 13.0458C30.5718 13.3144 30.6087 13.6001 30.5883 13.8844V17.4037L30.0709 17.3933Z" fill="white"/>
<path d="M34.705 17.4352C34.237 17.4417 33.7755 17.3198 33.3667 17.0817C32.9718 16.8452 32.6465 16.5 32.4264 16.0837C32.1977 15.6311 32.0781 15.127 32.0781 14.6151C32.0781 14.1033 32.1977 13.5992 32.4264 13.1466C32.6465 12.733 32.972 12.3911 33.3667 12.1589C33.7742 11.9168 34.2363 11.7929 34.705 11.8003C35.1481 11.7932 35.5848 11.9118 35.9687 12.1434C36.3494 12.3697 36.6602 12.7052 36.8642 13.1102C37.098 13.5742 37.2129 14.0936 37.1975 14.6177C37.2092 15.1376 37.0963 15.6522 36.8691 16.1149C36.6694 16.5237 36.3622 16.8646 35.9836 17.0973C35.593 17.3248 35.1521 17.4413 34.705 17.4352ZM34.7348 16.957C35.1179 16.9626 35.4955 16.8622 35.8294 16.6659C36.1449 16.4674 36.4015 16.1812 36.5706 15.8393C36.7539 15.4597 36.8494 15.0404 36.8494 14.6151C36.8494 14.1899 36.7539 13.7706 36.5706 13.3909C36.3936 13.0495 36.1304 12.7654 35.8095 12.5696C35.4736 12.3785 35.0973 12.2784 34.7149 12.2784C34.3325 12.2784 33.9562 12.3785 33.6204 12.5696C33.2995 12.7654 33.0362 13.0495 32.8592 13.3909C32.676 13.7706 32.5805 14.1899 32.5805 14.6151C32.5805 15.0404 32.676 15.4597 32.8592 15.8393C33.0338 16.184 33.2975 16.4704 33.6204 16.6659C33.9601 16.8658 34.3451 16.9664 34.7348 16.957ZM36.8791 17.3936V15.595L36.9736 14.6281L36.8691 13.6613V9.50781H37.3666V17.3936H36.8791Z" fill="white"/>
<path d="M41.6842 17.4351C41.1875 17.4464 40.6968 17.3209 40.2613 17.0712C39.8572 16.8385 39.5231 16.4929 39.2961 16.0732C39.0579 15.6291 38.9377 15.1266 38.9479 14.6176C38.9378 14.1096 39.0507 13.6071 39.2762 13.1569C39.4862 12.7445 39.8013 12.4009 40.1867 12.164C40.5808 11.9196 41.0319 11.7937 41.4901 11.8001C41.9441 11.7924 42.3914 11.9147 42.7837 12.1536C43.167 12.3869 43.4805 12.7271 43.6891 13.1361C43.9184 13.585 44.0332 14.0881 44.0225 14.5968C44.0249 14.6193 44.0249 14.642 44.0225 14.6644C44.0198 14.6921 44.0198 14.7199 44.0225 14.7476H39.321V14.3317H43.7389L43.5349 14.5553C43.5469 14.1502 43.4577 13.7489 43.2762 13.3908C43.1059 13.0501 42.8517 12.763 42.5399 12.5591C42.2211 12.3613 41.8558 12.2605 41.4852 12.268C41.1147 12.2624 40.7499 12.3631 40.4305 12.5591C40.1224 12.7556 39.8714 13.0359 39.7041 13.37C39.5222 13.7355 39.4331 14.1436 39.4454 14.5553V14.6488C39.4362 15.0706 39.5359 15.4872 39.734 15.8548C39.9273 16.2001 40.2101 16.4813 40.5499 16.6658C40.9063 16.8641 41.3053 16.9643 41.7091 16.9569C42.035 16.9605 42.3582 16.895 42.6593 16.7645C42.951 16.6393 43.2078 16.439 43.4056 16.1823L43.6991 16.5306C43.47 16.8289 43.1721 17.0614 42.8334 17.2064C42.4685 17.3611 42.0779 17.4388 41.6842 17.4351Z" fill="white"/>
<path d="M52.2129 11.8C52.599 11.7908 52.9815 11.88 53.3273 12.0599C53.6448 12.2376 53.902 12.5136 54.0636 12.8501C54.2524 13.254 54.343 13.7004 54.3273 14.1496V17.3934H53.8298V14.1912C53.865 13.6752 53.7082 13.1649 53.392 12.7669C53.2334 12.6001 53.0428 12.4702 52.8327 12.386C52.6226 12.3018 52.3978 12.2651 52.1731 12.2782C51.8101 12.2683 51.4511 12.3599 51.1333 12.5434C50.846 12.7213 50.6131 12.9809 50.4616 13.2919C50.2981 13.6484 50.218 14.0404 50.2278 14.4355V17.3934H49.7303V14.1912C49.7656 13.6752 49.6087 13.1649 49.2925 12.7669C49.1336 12.6006 48.9429 12.4711 48.7329 12.3869C48.5229 12.3028 48.2982 12.2657 48.0736 12.2782C47.7106 12.2683 47.3517 12.3599 47.0338 12.5434C46.7453 12.7197 46.512 12.9797 46.3622 13.2919C46.1986 13.6484 46.1185 14.0404 46.1284 14.4355V17.3934H45.6309V11.8416H46.1284V13.3751L46.0239 13.2035C46.1691 12.7775 46.4433 12.4124 46.805 12.1639C47.1997 11.9016 47.6608 11.7694 48.1283 11.7844C48.6065 11.7682 49.0766 11.9161 49.4666 12.2055C49.8438 12.5106 50.0905 12.9589 50.1532 13.4531L49.9791 13.3803C50.119 12.9135 50.4023 12.5079 50.785 12.2263C51.2064 11.9312 51.7059 11.7821 52.2129 11.8Z" fill="white"/>
<path d="M56.6795 10.6408C56.6269 10.6423 56.5746 10.6325 56.5258 10.6119C56.477 10.5913 56.4328 10.5605 56.3959 10.5213C56.3227 10.4436 56.2816 10.3391 56.2815 10.2302C56.2797 10.1744 56.2889 10.1188 56.3086 10.0669C56.3283 10.0151 56.358 9.96798 56.3959 9.92866C56.4722 9.85284 56.5742 9.81171 56.6795 9.8143C56.7321 9.81204 56.7846 9.8213 56.8336 9.84148C56.8826 9.86165 56.927 9.89229 56.964 9.93144C57.001 9.97059 57.0298 10.0174 57.0484 10.0688C57.0671 10.1203 57.0753 10.1752 57.0725 10.2302C57.0742 10.3385 57.0349 10.4431 56.9631 10.5213C56.9268 10.5613 56.8826 10.5926 56.8337 10.6133C56.7848 10.6339 56.7322 10.6433 56.6795 10.6408ZM56.4258 17.3986V11.8416H56.9233V17.3934L56.4258 17.3986Z" fill="white"/>
<path d="M60.5134 17.4353C60.1624 17.4435 59.8136 17.3762 59.4885 17.2377C59.221 17.1232 58.9912 16.93 58.8268 16.6815C58.6719 16.4348 58.5921 16.1448 58.598 15.8498C58.5964 15.5806 58.6615 15.3155 58.787 15.0804C58.9351 14.8299 59.1542 14.6337 59.4139 14.519C59.7835 14.3575 60.1827 14.283 60.583 14.3007H62.5332V14.7166H60.593C60.1841 14.6722 59.7738 14.7849 59.4387 15.0336C59.3292 15.1402 59.2429 15.27 59.1855 15.4144C59.1282 15.5588 59.1012 15.7144 59.1064 15.8706C59.1116 16.0269 59.1488 16.1801 59.2156 16.32C59.2824 16.4599 59.3771 16.5832 59.4935 16.6815C59.8121 16.9124 60.196 17.0242 60.583 16.9986C60.983 17.0145 61.3783 16.904 61.7173 16.6815C62.0348 16.4575 62.2753 16.1333 62.4039 15.7562L62.5432 16.1149C62.4095 16.5119 62.1541 16.8518 61.8168 17.0818C61.4249 17.3306 60.9716 17.4535 60.5134 17.4353ZM62.4238 17.3937V16.1149V15.9226V13.8432C62.4383 13.6281 62.41 13.4122 62.3407 13.2091C62.2713 13.006 62.1624 12.8201 62.0208 12.6632C61.696 12.3714 61.2739 12.2256 60.8467 12.2578C60.1642 12.2591 59.5057 12.5217 58.996 12.9959L58.7422 12.6164C59.0209 12.3586 59.3455 12.1608 59.6975 12.0342C60.0732 11.8968 60.4685 11.8265 60.8666 11.8263C61.409 11.7968 61.9421 11.9824 62.3591 12.3461C62.5465 12.5531 62.6902 12.7988 62.781 13.0674C62.8719 13.3361 62.9078 13.6216 62.8865 13.9056V17.4249L62.4238 17.3937Z" fill="white"/>
<path d="M69.486 17.4457C69.1065 17.4633 68.7275 17.4006 68.3718 17.2613C68.0161 17.1219 67.6911 16.9088 67.4163 16.6347C67.1443 16.3065 66.937 15.9254 66.8064 15.5133C66.6758 15.1011 66.6244 14.6661 66.6551 14.2331V9.94971H67.1527V14.2123C67.0902 14.9622 67.3097 15.708 67.7646 16.2916C68.2436 16.724 68.8554 16.962 69.4884 16.962C70.1214 16.962 70.7333 16.724 71.2123 16.2916C71.6672 15.708 71.8867 14.9622 71.8242 14.2123V9.94971H72.3217V14.2383C72.388 15.1082 72.1214 15.97 71.5805 16.6347C71.3026 16.9118 70.9735 17.1266 70.6133 17.266C70.2531 17.4055 69.8695 17.4666 69.486 17.4457Z" fill="white"/>
<path d="M77.1962 11.8003C77.5887 11.7922 77.9774 11.8813 78.3305 12.0602C78.6525 12.237 78.9147 12.5128 79.0818 12.8504C79.2725 13.2538 79.3648 13.7002 79.3504 14.1499V17.3937H78.8529V14.1915C78.8862 13.6731 78.7236 13.1618 78.4002 12.7672C78.2319 12.5995 78.0325 12.4696 77.8143 12.3855C77.5961 12.3015 77.3638 12.2651 77.1316 12.2786C76.7575 12.2688 76.3873 12.3601 76.0569 12.5437C75.7566 12.7142 75.5123 12.9749 75.3555 13.2922C75.1878 13.6474 75.1058 14.04 75.1166 14.4359V17.3937H74.6191V11.8419H75.1166V13.4014L75.047 13.2298C75.2009 12.8013 75.4838 12.4365 75.853 12.1902C76.2547 11.9261 76.7217 11.7906 77.1962 11.8003Z" fill="white"/>
<path d="M81.6999 10.6406C81.6481 10.6417 81.5966 10.6316 81.5487 10.611C81.5008 10.5905 81.4574 10.5598 81.4213 10.521C81.3481 10.4434 81.307 10.3389 81.3069 10.2299C81.3051 10.1741 81.3143 10.1186 81.334 10.0667C81.3537 10.0148 81.3834 9.96774 81.4213 9.92842C81.4961 9.85339 81.5962 9.81229 81.6999 9.81406C81.7529 9.81105 81.8059 9.81976 81.8555 9.83959C81.9051 9.85943 81.9502 9.88996 81.9877 9.92919C82.0252 9.96842 82.0545 10.0155 82.0735 10.0673C82.0924 10.1191 82.1008 10.1745 82.0979 10.2299C82.0996 10.3382 82.0602 10.4429 81.9884 10.521C81.9514 10.5614 81.9064 10.593 81.8566 10.6136C81.8068 10.6343 81.7534 10.6435 81.6999 10.6406ZM81.4462 17.3984V11.8414H81.9437V17.3932L81.4462 17.3984Z" fill="white"/>
<path d="M83.2246 12.299V11.8416H86.3987V12.299H83.2246ZM85.6475 17.435C85.4512 17.4486 85.2545 17.4197 85.0695 17.3499C84.8845 17.2801 84.7154 17.171 84.5729 17.0295C84.4436 16.881 84.344 16.707 84.2799 16.5178C84.2158 16.3285 84.1886 16.1278 84.1997 15.9274V10.6304H84.6972V15.8703C84.678 16.1679 84.7688 16.4619 84.951 16.6916C85.0461 16.7912 85.1607 16.8683 85.2869 16.9176C85.413 16.9669 85.5479 16.9874 85.6823 16.9775C85.9848 16.9878 86.2798 16.8783 86.5082 16.6708L86.7221 17.0399C86.5791 17.1769 86.4094 17.2797 86.2246 17.3414C86.0378 17.4025 85.8432 17.434 85.6475 17.435Z" fill="white"/>
<path d="M90.1117 17.435C89.6167 17.4456 89.1278 17.3201 88.6938 17.0711C88.2897 16.8384 87.9556 16.4928 87.7287 16.0731C87.4889 15.6294 87.367 15.1269 87.3754 14.6175C87.3671 14.1091 87.4817 13.6066 87.7088 13.1568C87.9188 12.7444 88.2339 12.4008 88.6192 12.1639C89.0133 11.9195 89.4644 11.7936 89.9227 11.8C90.3764 11.7941 90.8233 11.9163 91.2162 12.1535C91.5995 12.3868 91.913 12.727 92.1216 13.136C92.3509 13.5849 92.4657 14.088 92.455 14.5967C92.455 14.5967 92.455 14.6435 92.455 14.6643C92.4523 14.692 92.4523 14.7198 92.455 14.7475H87.7635V14.3316H92.1813L91.9774 14.5344C91.9901 14.1286 91.8991 13.7267 91.7137 13.3699C91.5452 13.0367 91.2944 12.7567 90.9873 12.559C90.6686 12.3612 90.3033 12.2604 89.9326 12.2679C89.5622 12.2623 89.1974 12.363 88.8779 12.559C88.5699 12.7555 88.3188 13.0358 88.1515 13.3699C87.9696 13.7318 87.8788 14.1361 87.8879 14.5447V14.6383C87.8787 15.0601 87.9783 15.4767 88.1764 15.8443C88.3637 16.1899 88.6393 16.4743 88.9724 16.6657C89.2977 16.8389 89.6547 16.9373 90.0194 16.9543C90.3841 16.9714 90.7481 16.9066 91.0868 16.7644C91.3786 16.6392 91.6353 16.4389 91.8331 16.1822L92.1266 16.5305C91.8966 16.83 91.5968 17.0627 91.256 17.2063C90.893 17.3616 90.5039 17.4394 90.1117 17.435Z" fill="white"/>
<path d="M96.0754 17.4352C95.6074 17.4417 95.1459 17.3198 94.7371 17.0817C94.3367 16.8475 94.0061 16.5021 93.7819 16.0837C93.5531 15.6311 93.4336 15.127 93.4336 14.6151C93.4336 14.1033 93.5531 13.5992 93.7819 13.1466C94.002 12.733 94.3275 12.3911 94.7222 12.1589C95.1296 11.9168 95.5917 11.7929 96.0605 11.8003C96.5036 11.7932 96.9403 11.9118 97.3241 12.1434C97.7049 12.3697 98.0156 12.7052 98.2196 13.1102C98.4502 13.5755 98.5648 14.094 98.553 14.6177C98.5755 15.1345 98.4746 15.649 98.2594 16.1149C98.0593 16.5251 97.7501 16.8663 97.3689 17.0973C96.9745 17.3292 96.5278 17.4459 96.0754 17.4352ZM96.1052 16.957C96.4883 16.9626 96.8659 16.8622 97.1998 16.6659C97.5198 16.4666 97.7826 16.1811 97.9609 15.8393C98.1442 15.4597 98.2397 15.0404 98.2397 14.6151C98.2397 14.1899 98.1442 13.7706 97.9609 13.3909C97.7811 13.0517 97.5185 12.7683 97.1998 12.5696C96.8639 12.3785 96.4876 12.2784 96.1052 12.2784C95.7228 12.2784 95.3465 12.3785 95.0107 12.5696C94.6898 12.7654 94.4265 13.0495 94.2495 13.3909C94.0632 13.7696 93.966 14.1893 93.966 14.6151C93.966 15.041 94.0632 15.4607 94.2495 15.8393C94.4241 16.184 94.6878 16.4704 95.0107 16.6659C95.3446 16.8622 95.7222 16.9626 96.1052 16.957ZM98.2495 17.3936V15.595L98.344 14.6281L98.2594 13.6405V9.50781H98.757V17.3936H98.2495Z" fill="white"/>
</svg>
